<svg version="1.1" viewBox="0 0 302.1 181.09" xml:space="preserve" xmlns="http://www.w3.org/2000/svg"><defs><clipPath id="clipPath18"><path d="M 0,135.816 H 226.576 V 0 H 0 Z"/></clipPath></defs><g transform="matrix(1.3333 0 0 -1.3333 0 181.09)"><g clip-path="url(#clipPath18)"><g transform="translate(6.4741 47.286)"><path d="m0 0v1.266h-6.474v-8.769c1.411 3.071 3.667 5.672 6.474 7.503" style="fill:#FFFFFF"/></g><g transform="translate(16.185 48.552)"><path d="m0 0c-3.644 0-7.005-1.205-9.71-3.237-3.931-2.952-6.474-7.652-6.474-12.948v-29.13h6.474v29.13c0 5.364 4.347 9.712 9.71 9.712s9.71-4.348 9.71-9.712c0-5.362-4.347-9.71-9.71-9.71-3.378 0-6.353 1.727-8.092 4.344v-7.672s3.059-3.145 8.092-3.145c8.938 0 16.184 7.246 16.184 16.183 0 8.939-7.246 16.185-16.184 16.185" style="fill:#FFFFFF"/></g><g transform="translate(51.142 48.552)"><path d="m0 0c-8.938 0-16.184-7.246-16.184-16.185 0-8.937 7.246-16.183 16.184-16.183 6.21 0 11.601 3.499 14.312 8.633l-5.723 3.02-1e-3 1e-3c-1.628-3.08-4.862-5.181-8.588-5.181-4.348 0-8.028 2.859-9.265 6.798h25.182c0.172 0.945 0.267 1.918 0.267 2.912 0 8.939-7.246 16.185-16.184 16.185m-9.265-13.271c1.237 3.94 4.917 6.798 9.265 6.798s8.028-2.858 9.265-6.798z" style="fill:#FFFFFF"/></g><g transform="translate(77.36 47.286)"><path d="m0 0v1.266h-6.474v-8.769c1.411 3.071 3.667 5.672 6.474 7.503" style="fill:#FFFFFF"/></g><g transform="translate(87.07 48.552)"><path d="m0 0c-3.644 0-7.005-1.205-9.71-3.237-3.931-2.952-6.474-7.652-6.474-12.948v-16.183h6.474v16.183c0 5.364 4.347 9.712 9.71 9.712 5.362 0 9.71-4.348 9.71-9.712v-16.183h6.474v16.183c0 8.939-7.246 16.185-16.184 16.185" style="fill:#FFFFFF"/></g><path d="m181.58 16.185h6.475v32.367h-6.475z" style="fill:#FFFFFF"/><g transform="translate(168.96 17.449)"><path d="m0 0v-1.266h6.474v8.77c-1.411-3.072-3.667-5.673-6.474-7.504" style="fill:#FFFFFF"/></g><g transform="translate(168.96 32.368)"><path d="m0 0c0-5.363-4.347-9.71-9.711-9.71-5.362 0-9.71 4.347-9.71 9.71v16.184h-6.475v-16.184c0-8.938 7.247-16.185 16.185-16.185 3.644 0 7.006 1.206 9.711 3.238 3.931 2.952 6.474 7.652 6.474 12.947v16.184h-6.474z" style="fill:#FFFFFF"/></g><g transform="translate(200.68 47.286)"><path d="m0 0v1.266h-6.475v-8.769c1.412 3.071 3.667 5.672 6.475 7.503" style="fill:#FFFFFF"/></g><g transform="translate(210.39 48.552)"><path d="m0 0c-3.643 0-7.005-1.205-9.71-3.237-3.931-2.952-6.474-7.652-6.474-12.948v-16.183h6.474v16.183c0 5.364 4.349 9.712 9.71 9.712 5.363 0 9.711-4.348 9.711-9.712v-16.183h6.475v16.183c0 8.939-7.248 16.185-16.186 16.185" style="fill:#FFFFFF"/></g><g transform="translate(132.39 47.286)"><path d="m0 0c2.807-1.831 5.063-4.431 6.473-7.503v8.769h-6.473z" style="fill:#FFFFFF"/></g><g transform="translate(132.39 45.315)"><path d="m0 0c-2.706 2.031-6.067 3.236-9.711 3.236-8.938 0-16.185-7.246-16.185-16.183 0-8.939 7.247-16.184 16.185-16.184 5.032 0 8.093 3.145 8.093 3.145v7.672c-1.74-2.619-4.714-4.344-8.093-4.344-5.363 0-9.71 4.347-9.71 9.711 0 5.363 4.347 9.71 9.71 9.71 5.362 0 9.711-4.347 9.711-9.71v-16.184c0-5.363-4.349-9.712-9.711-9.712-3.727 0-6.961 2.101-8.589 5.182l-1e-3 -2e-3 -5.722-3.021c2.711-5.132 8.101-8.631 14.312-8.631 8.939 0 16.184 7.246 16.184 16.184v16.184c0 5.294-2.543 9.994-6.473 12.947" style="fill:#FFFFFF"/></g><g transform="translate(129.01 109.35)"><path d="m0 0c1.095 0.1 1.739 0.347 1.915 0.76 0.21 0.495 0.213 1.38-0.046 1.91-0.494 1.007-1.336 1.448-2.429 1.503-1.822 0.09-4.546 0.293-5.757 0.264-2.766 0.042-6.273-0.119-8.173-3.207l-0.316-0.612c-1.047-2.585-0.658-5.382 6.083-12.124 5.826-5.826 7.504-10.761 7.994-15.044 0.595 0.993 1.167 2.033 1.705 3.135 0.099 0.203 0.198 0.409 0.295 0.618 4e-3 7e-3 0.098 0.208 0.237 0.513-1.071 3.67-3.202 7.608-7.404 11.914-0.115 0.119-0.145 0.3-0.244 0.432-2.45 3.267-2.011 4.38-0.994 5.96 1.881 2.92 1.813 3.494 7.134 3.978" style="fill:#FFFFFF"/></g><g transform="translate(121.07 135.82)"><path d="m0 0c-7.879 0-12.289-4.215-20.292-11.866-2.398-2.294-5.119-4.894-8.388-7.828-14.929-13.403-6.672-27.654 0.828-38.015l0.513 6.909c-5.662 8.705-9.157 18.58 1.68 28.309 3.042 2.73 5.564 5.142 7.79 7.269 7.22 6.901 10.843 10.365 17.265 10.365 6.698 0 11.541-1.929 14.396-5.733 4.342-5.784 4.396-16.101 0.16-30.664-1.149-3.953-2.48-7.276-3.908-10.077l-3e-3 0.017c-0.853-1.675-1.74-3.174-2.646-4.494v-5e-3c-3.455-5.027-7.162-7.634-10.148-8.98l4e-3 8.394c0.062 8.185-3.332 14.387-6.062 19.369-0.422 0.773-0.755 1.534-1.012 2.28v-4e-3s-3.406 7.758 2.579 12.405c2.602 2.021 5.57 1.855 6.906 1.641-2.507 1.799-7.287 3.945-13.412 0.982-1.985-0.96-6.841-4.501-6.841-11.562v-1.682c0-0.215-0.078-0.417-0.218-0.581-2.923-3.469-4.198-9.757-4.747-15.181-0.081-0.983-0.169-2.092-0.259-3.279-0.018-0.33-0.037-0.657-0.052-0.971-7e-3 0.01-0.012 0.02-0.02 0.029-0.161-2.174-0.325-4.539-0.456-6.808 0.272-0.366 0.541-0.727 0.804-1.081 0.929-1.245 1.806-2.42 2.597-3.535 3.058-4.312 8.045-6.758 13.481-6.758 1.017 0 2.05 0.086 3.088 0.261 5.075 0.856 17.607 5.346 24.343 28.505 4.801 16.51 4.619 28.367-0.541 35.242-3.55 4.729-9.413 7.127-17.429 7.127" style="fill:#FFFFFF"/></g></g></g></svg>
